<svg width="711" height="556" viewBox="0 0 711 556" fill="none" xmlns="http://www.w3.org/2000/svg">
<g id="Icon 1">
<path id="Vector" d="M584.376 556C648.336 556 700.186 548.878 700.186 540.093C700.186 531.307 648.336 524.185 584.376 524.185C520.416 524.185 468.566 531.307 468.566 540.093C468.566 548.878 520.416 556 584.376 556Z" fill="#E6E6E6"/>
<path id="Vector_2" d="M590.764 484.706C590.764 484.706 596.987 507.393 601.136 513.248C605.284 519.103 608.741 528.618 606.667 530.081C604.593 531.545 600.444 549.11 605.976 549.842C611.507 550.574 623.953 530.813 624.645 524.226C625.336 517.64 628.102 494.22 628.102 494.22C628.102 494.22 632.942 473.728 625.336 472.264C617.73 470.8 605.976 470.068 605.976 470.068L590.764 484.706Z" fill="#2F2E41"/>
<path id="Vector_3" d="M561.724 508.857C561.724 508.857 552.735 533.741 550.661 535.204C548.586 536.668 540.98 549.842 556.192 549.842C571.404 549.842 579.701 545.45 579.701 545.45L584.541 539.595C584.541 539.595 584.541 524.226 583.158 522.031C581.775 519.835 583.158 508.857 583.158 508.857H561.724Z" fill="#2F2E41"/>
<path id="Vector_4" d="M500.186 281.247C500.186 281.247 489.123 360.289 498.803 385.904C508.483 411.519 518.163 418.838 518.163 418.838L591.455 491.292C591.455 491.292 614.273 478.851 612.199 470.8C612.199 470.8 607.359 467.873 606.667 465.677C605.976 463.482 596.987 462.75 596.987 462.75C596.987 462.75 592.838 457.627 592.838 454.699C592.838 451.772 556.884 399.809 545.129 396.15C545.129 396.15 538.906 388.1 539.598 386.636C540.289 385.172 537.523 380.049 537.523 380.049L544.438 351.506L587.998 344.188C587.998 344.188 605.976 276.856 590.764 271.733C575.552 266.61 500.186 281.247 500.186 281.247Z" fill="#2F2E41"/>
<path id="Vector_5" d="M586.615 332.478L587.998 344.188C587.998 344.188 587.998 374.926 586.615 377.854C585.232 380.781 584.541 385.172 586.615 388.1C588.69 391.027 592.147 398.346 590.764 401.273C589.381 404.201 593.53 486.901 587.998 492.756C582.467 498.611 584.541 505.93 585.233 506.662C585.924 507.393 584.541 510.321 584.541 510.321C584.541 510.321 556.192 515.444 558.266 510.321C560.341 505.198 560.341 502.27 561.724 500.807C563.107 499.343 561.724 497.147 561.724 497.147C561.724 497.147 563.798 473.728 561.724 472.264C559.649 470.8 553.426 400.541 553.426 399.81C553.426 399.078 551.352 397.614 551.352 394.686C551.352 391.759 551.352 382.245 547.895 380.781C544.438 379.317 545.129 343.456 545.129 343.456L586.615 332.478Z" fill="#2F2E41"/>
<path id="Vector_6" d="M537.523 71.2023C537.523 71.2023 540.289 93.1583 548.586 97.5494C556.884 101.941 562.415 104.136 562.415 104.136L555.501 129.751L552.735 151.707H520.929L503.643 137.07L509.174 112.919L511.94 108.527C511.94 108.527 515.397 92.4264 512.631 87.3033C509.866 82.1803 537.523 71.2023 537.523 71.2023Z" fill="#FFB9B9"/>
<path id="Vector_7" d="M523.694 124.628L528.535 134.143C528.535 134.143 531.992 120.969 536.832 118.774C541.672 116.578 553.426 112.919 553.426 109.991C553.426 107.064 552.735 99.7451 555.501 99.7451C558.266 99.7451 585.232 108.527 589.381 111.455C593.53 114.382 594.221 117.31 594.221 117.31L586.615 201.474C586.615 201.474 597.678 240.995 594.221 256.364C590.764 271.733 587.998 273.929 579.701 276.124C571.404 278.32 576.244 271.001 552.043 278.32C527.843 285.639 512.631 283.443 507.1 283.443C501.568 283.443 498.111 286.37 496.728 287.102C495.345 287.834 496.037 283.443 500.877 276.856C505.717 270.269 503.643 259.292 503.643 259.292C503.643 259.292 498.111 240.263 501.568 232.944C505.026 225.626 509.866 216.111 505.717 213.184C501.568 210.257 496.037 188.301 496.037 188.301L480.825 131.215L511.94 108.527C511.94 108.527 510.557 118.774 515.397 120.969C520.237 123.165 523.694 124.628 523.694 124.628Z" fill="#575A89"/>
<path id="Vector_8" d="M484.974 130.483H480.825C480.825 130.483 473.911 142.925 473.911 151.707C473.911 160.49 477.368 210.257 477.368 210.257L497.42 232.212L502.26 215.38L503.643 178.055L484.974 130.483Z" fill="#575A89"/>
<path id="Vector_9" d="M496.037 208.061C496.037 208.061 473.219 201.474 473.911 211.72C474.602 221.966 478.06 234.408 489.123 237.336C500.186 240.263 503.643 224.162 503.643 224.162C503.643 224.162 505.026 209.525 496.037 208.061Z" fill="#575A89"/>
<path id="Vector_10" d="M581.775 241.727C581.775 241.727 580.392 275.392 572.095 279.052L592.147 284.175C592.147 284.175 601.827 249.045 600.444 247.582C599.061 246.118 581.775 241.727 581.775 241.727Z" fill="#FFB9B9"/>
<path id="Vector_11" d="M463.179 173.2L475.054 167.709C475.497 167.504 476 167.494 476.45 167.681C476.901 167.868 477.263 168.236 477.456 168.706L490.658 200.692C490.894 201.265 490.906 201.914 490.69 202.497C490.475 203.08 490.049 203.548 489.507 203.798L478.373 208.946C477.832 209.197 477.218 209.209 476.668 208.981C476.118 208.752 475.675 208.302 475.439 207.729L462.238 175.743C462.142 175.51 462.09 175.26 462.085 175.007C462.081 174.753 462.123 174.501 462.211 174.265C462.298 174.029 462.429 173.813 462.595 173.63C462.761 173.447 462.96 173.301 463.179 173.2Z" fill="#2F2E41"/>
<path id="Vector_12" opacity="0.1" d="M463.179 173.2L475.054 167.709C475.497 167.504 476 167.494 476.45 167.681C476.901 167.868 477.263 168.236 477.456 168.706L490.658 200.692C490.894 201.265 490.906 201.914 490.69 202.497C490.475 203.08 490.049 203.548 489.507 203.798L478.373 208.946C477.832 209.197 477.218 209.209 476.668 208.981C476.118 208.752 475.675 208.302 475.439 207.729L462.238 175.743C462.142 175.51 462.09 175.26 462.085 175.007C462.081 174.753 462.123 174.501 462.211 174.265C462.298 174.029 462.429 173.813 462.595 173.63C462.761 173.447 462.96 173.301 463.179 173.2Z" fill="black"/>
<path id="Vector_13" d="M463.853 174.832L474.206 170.045C474.649 169.84 475.151 169.83 475.602 170.017C476.053 170.204 476.415 170.573 476.608 171.042L489.136 201.395C489.372 201.969 489.384 202.618 489.168 203.201C488.953 203.783 488.527 204.251 487.985 204.502L478.373 208.946C477.832 209.197 477.218 209.209 476.668 208.981C476.117 208.752 475.675 208.302 475.439 207.729L462.911 177.375C462.718 176.906 462.708 176.374 462.885 175.897C463.061 175.42 463.41 175.037 463.853 174.832Z" fill="#2F2E41"/>
<path id="Vector_14" d="M473.374 187.78C475.055 187.003 475.814 184.911 475.07 183.107C474.326 181.304 472.36 180.472 470.679 181.249C468.998 182.027 468.238 184.119 468.983 185.922C469.727 187.725 471.693 188.557 473.374 187.78Z" fill="#F2F2F2"/>
<path id="Vector_15" opacity="0.1" d="M586.961 127.19L591.455 120.237C591.455 120.237 608.05 147.316 606.667 165.613C605.284 183.909 603.901 184.641 603.901 187.569C603.901 190.496 600.444 190.496 603.901 194.156C607.359 197.815 612.199 202.938 609.433 205.865C606.667 208.793 604.593 208.793 605.284 212.452C605.726 215.111 605.958 217.803 605.976 220.503C605.976 220.503 600.098 232.578 598.024 232.578C595.95 232.578 576.244 251.973 576.244 249.777C576.244 247.582 578.318 232.213 578.318 230.017C578.318 227.821 579.01 220.503 580.392 218.307C581.775 216.111 581.775 216.843 580.392 214.648C579.01 212.452 579.01 214.648 579.01 212.452C579.01 210.257 579.701 207.329 577.627 206.597C575.552 205.865 573.478 206.597 574.861 202.938C576.244 199.279 574.861 196.351 574.17 196.351C573.478 196.351 570.021 195.619 572.095 193.424C574.17 191.228 567.947 148.78 567.947 148.78C567.947 148.78 568.984 138.168 586.961 127.19Z" fill="black"/>
<path id="Vector_16" d="M583.158 111.455L594.913 117.31C594.913 117.31 611.507 144.389 610.124 162.685C608.741 180.982 607.359 181.714 607.359 184.641C607.359 187.569 603.901 187.569 607.359 191.228C610.816 194.887 615.656 200.01 612.89 202.938C610.124 205.865 608.05 205.865 608.741 209.525C609.184 212.183 609.415 214.876 609.433 217.575C609.433 217.575 603.21 252.705 601.136 252.705C599.061 252.705 579.701 249.045 579.701 246.85C579.701 244.654 581.775 229.285 581.775 227.089C581.775 224.894 582.467 217.575 583.85 215.38C585.233 213.184 585.233 213.916 583.85 211.72C582.467 209.525 582.467 211.72 582.467 209.525C582.467 207.329 583.158 204.402 581.084 203.67C579.01 202.938 576.935 203.67 578.318 200.01C579.701 196.351 578.318 193.424 577.627 193.424C576.935 193.424 573.478 192.692 575.552 190.496C577.627 188.301 571.404 145.852 571.404 145.852C571.404 145.852 565.181 122.433 583.158 111.455Z" fill="#575A89"/>
<path id="Vector_17" d="M477.887 213.291C477.239 213.455 476.558 213.379 475.958 213.074C475.358 212.769 474.876 212.255 474.594 211.617C471.583 204.816 463.464 184.886 471.502 184.478C478.917 184.101 485.133 199.54 487.646 206.822C487.806 207.285 487.871 207.779 487.838 208.27C487.804 208.762 487.673 209.241 487.451 209.676C487.23 210.11 486.925 210.49 486.555 210.791C486.185 211.092 485.759 211.307 485.306 211.421L477.887 213.291Z" fill="#FFB9B9"/>
<path id="Vector_18" d="M498.658 83.3991C508.459 93.5764 525.137 93.4171 535.909 83.0432C546.681 72.6694 547.469 56.0093 537.668 45.832C527.867 35.6546 511.189 35.814 500.417 46.1878C489.645 56.5617 488.857 73.2217 498.658 83.3991Z" fill="#FFB9B9"/>
<path id="Vector_19" d="M508.762 49.0202C505.57 50.186 502.275 51.0093 498.927 51.4777C496.408 51.8938 493.459 52.1068 491.688 50.1645C489.95 48.2584 490.232 45.0789 491.417 42.746C492.602 40.4131 494.501 38.584 495.926 36.4061C498.166 32.9808 499.488 28.4397 503.071 26.7141C504.555 26.1125 506.131 25.801 507.721 25.7948C517.017 25.1674 526.693 24.6022 535.302 28.3675C538.537 29.672 541.403 31.8303 543.627 34.6374C545.085 36.7043 546.209 39.012 546.955 41.4671C549.256 48.6913 549.767 56.4194 548.441 63.9127C547.115 71.4059 543.995 78.4139 539.379 84.2665C536.242 81.2744 537.606 74.3607 533.636 72.836C532.334 72.3358 530.861 72.6839 529.527 72.288C525.335 71.0436 525.545 64.1851 522.055 61.4294C521.292 60.9952 520.617 60.408 520.067 59.7005C519.76 59.0221 519.627 58.2702 519.68 57.5201C519.655 54.9508 520.795 48.4244 518.48 46.6633C516.123 44.8706 511.027 48.1545 508.762 49.0202Z" fill="#2F2E41"/>
<path id="Vector_20" d="M494.835 492.526C494.835 492.526 492.955 449.712 454.4 454.688L494.835 492.526Z" fill="#E6E6E6"/>
<path id="Vector_21" d="M657.4 392.261C657.4 392.261 659.281 349.446 697.835 354.423L657.4 392.261Z" fill="#E6E6E6"/>
<path id="Vector_22" d="M656.603 528.852C656.555 528.401 651.975 483.503 670.518 459.743C677.362 450.973 686.532 446.062 697.773 445.147L697.897 446.839C687.107 447.718 678.312 452.422 671.757 460.82C653.648 484.021 658.149 528.217 658.196 528.66L656.603 528.852Z" fill="#E6E6E6"/>
<path class='message2' id="message2" d="M54.8077 144.201H364.861V251.937H353.116V280.114L326.496 251.937H54.8077V144.201Z" fill="#C85A5A"/>
<path class='message2' id="message2_2" d="M356.248 154.692H63.42V240.881H356.248V154.692Z" fill="white"/>
<path class='text2' id="text2" d="M227.957 179.856H86.9679V184.385H227.957V179.856Z" fill="#6C63FF"/>
<path class='text2' id="text2_2" d="M332.7 195.522H86.9679V200.051H332.7V195.522Z" fill="#E6E6E6"/>
<path class='text2' id="text2_3" d="M332.46 211.189H86.9679V215.718H332.46V211.189Z" fill="#E6E6E6"/>
<path class='message3' id="message3" d="M310.053 288.401H0V396.138H11.7445V424.315L38.3649 396.138H310.053V288.401Z" fill="#C85A5A"/>
<path class='message3' id="message3_2" d="M301.441 298.893H8.61258V385.082H301.441V298.893Z" fill="white"/>
<path class='text3' id="text3" d="M175.499 324.885H34.5094V329.414H175.499V324.885Z" fill="#6C63FF"/>
<path class='text3' id="text3_2" d="M280.242 340.552H34.5094V345.081H280.242V340.552Z" fill="#E6E6E6"/>
<path class='text3' id="text3_3" d="M280.001 356.219H34.5094V360.747H280.001V356.219Z" fill="#E6E6E6"/>
<path class='message1' id="message1" d="M310.053 0H0V107.736H11.7445V135.914L38.3649 107.736H310.053V0Z" fill="#C85A5A"/>
<path class='message1' id="message1_2" d="M301.441 10.4915H8.61258V96.6805H301.441V10.4915Z" fill="white"/>
<path class='text1' id="text1" d="M175.499 36.4837H34.5094V41.0125H175.499V36.4837Z" fill="#6C63FF"/>
<path class='text1' id="text1_2" d="M280.242 52.1504H34.5094V56.6792H280.242V52.1504Z" fill="#E6E6E6"/>
<path class='text1' id="text1_3" d="M280.001 67.817H34.5094V72.3458H280.001V67.817Z" fill="#E6E6E6"/>
<path id="Vector_23" d="M495.011 442.699H493.407V536.064H495.011V442.699Z" fill="#E6E6E6"/>
<path id="Vector_24" d="M656.993 348.485H655.39V536.064H656.993V348.485Z" fill="#E6E6E6"/>
<path id="bulb" d="M494.835 445.73C502.106 445.73 508 439.492 508 431.796C508 424.1 502.106 417.861 494.835 417.861C487.565 417.861 481.67 424.1 481.67 431.796C481.67 439.492 487.565 445.73 494.835 445.73Z" fill="#6C63FF"/>
<path id="bulb_2" d="M657.4 349.446C664.671 349.446 670.565 343.207 670.565 335.512C670.565 327.816 664.671 321.577 657.4 321.577C650.129 321.577 644.235 327.816 644.235 335.512C644.235 343.207 650.129 349.446 657.4 349.446Z" fill="#6C63FF"/>
<path id="bulb_3" d="M697.835 459.927C705.106 459.927 711 453.689 711 445.993C711 438.297 705.106 432.058 697.835 432.058C690.564 432.058 684.67 438.297 684.67 445.993C684.67 453.689 690.564 459.927 697.835 459.927Z" fill="#E6E6E6"/>
</g>
</svg>
