<svg width="24" height="22" viewBox="0 0 24 22" fill="none" xmlns="http://www.w3.org/2000/svg">
<path d="M12 8.86102C11.7191 8.86102 11.441 8.91634 11.1814 9.02384C10.9219 9.13133 10.6861 9.28889 10.4875 9.48751C10.2889 9.68614 10.1313 9.92194 10.0238 10.1815C9.91633 10.441 9.861 10.7191 9.861 11C9.861 11.2809 9.91633 11.5591 10.0238 11.8186C10.1313 12.0781 10.2889 12.3139 10.4875 12.5125C10.6861 12.7111 10.9219 12.8687 11.1814 12.9762C11.441 13.0837 11.7191 13.139 12 13.139C12.2809 13.139 12.559 13.0837 12.8186 12.9762C13.0781 12.8687 13.3139 12.7111 13.5125 12.5125C13.7111 12.3139 13.8687 12.0781 13.9762 11.8186C14.0837 11.5591 14.139 11.2809 14.139 11C14.139 10.7191 14.0837 10.441 13.9762 10.1815C13.8687 9.92194 13.7111 9.68614 13.5125 9.48751C13.3139 9.28889 13.0781 9.13133 12.8186 9.02384C12.559 8.91634 12.2809 8.86102 12 8.86102ZM6.008 15.255L5.536 15.135C2.018 14.246 0 12.737 0 10.996C0 9.25502 2.018 7.74602 5.536 6.85702L6.008 6.73802L6.141 7.20602C6.49738 8.43373 6.95322 9.63036 7.504 10.784L7.605 10.997L7.504 11.21C6.95231 12.3633 6.49643 13.56 6.141 14.788L6.008 15.255ZM5.317 7.95002C2.643 8.70102 1.002 9.85002 1.002 10.996C1.002 12.141 2.643 13.29 5.317 14.042C5.64402 13.0019 6.03887 11.9844 6.499 10.996C6.03834 10.0078 5.64348 8.99027 5.317 7.95002V7.95002ZM17.992 15.255L17.859 14.786C17.503 13.5584 17.0468 12.362 16.495 11.209L16.394 10.996L16.495 10.783C17.0466 9.62958 17.5028 8.43291 17.859 7.20502L17.992 6.73702L18.465 6.85602C21.982 7.74502 24 9.25402 24 10.996C24 12.738 21.982 14.246 18.465 15.135L17.992 15.255V15.255ZM17.501 10.996C17.981 12.035 18.378 13.056 18.683 14.042C21.358 13.29 22.998 12.141 22.998 10.996C22.998 9.85002 21.357 8.70202 18.683 7.95002C18.3564 8.99024 17.9616 10.0078 17.501 10.996V10.996ZM5.31 7.94502L5.177 7.47802C4.188 3.99202 4.488 1.49402 6 0.622016C7.483 -0.233984 9.864 0.777016 12.359 3.33802L12.699 3.68702L12.359 4.03602C11.4725 4.95762 10.6624 5.9499 9.937 7.00302L9.802 7.19602L9.567 7.21602C8.29091 7.31661 7.02509 7.52062 5.782 7.82602L5.31 7.94502V7.94502ZM7.206 1.31502C6.938 1.31502 6.701 1.37302 6.501 1.48802C5.507 2.06102 5.331 4.05302 6.016 6.74102C7.08164 6.50395 8.16159 6.33659 9.249 6.24002C9.87642 5.3479 10.5619 4.49806 11.301 3.69602C9.741 2.17702 8.264 1.31502 7.206 1.31502V1.31502ZM16.795 21.677C16.794 21.677 16.794 21.677 16.795 21.677C15.37 21.677 13.54 20.604 11.641 18.654L11.301 18.305L11.641 17.956C12.5273 17.0341 13.337 16.0415 14.062 14.988L14.197 14.795L14.431 14.775C15.7078 14.675 16.9743 14.4713 18.218 14.166L18.69 14.047L18.824 14.515C19.811 17.999 19.512 20.498 18 21.369C17.6327 21.5767 17.2169 21.683 16.795 21.677V21.677ZM12.699 18.296C14.259 19.815 15.736 20.677 16.794 20.677H16.795C17.062 20.677 17.3 20.619 17.499 20.504C18.493 19.931 18.67 17.938 17.984 15.25C16.9181 15.4874 15.8378 15.6548 14.75 15.751C14.1233 16.6437 13.4382 17.4939 12.699 18.296V18.296ZM18.69 7.94502L18.218 7.82602C16.9744 7.51974 15.7079 7.31572 14.431 7.21602L14.197 7.19602L14.062 7.00302C13.3374 5.94957 12.5277 4.95725 11.641 4.03602L11.301 3.68702L11.641 3.33802C14.135 0.778016 16.515 -0.232984 18 0.622016C19.512 1.49402 19.812 3.99202 18.824 7.47702L18.69 7.94502ZM14.75 6.24002C15.892 6.34402 16.977 6.51302 17.984 6.74102C18.67 4.05302 18.493 2.06102 17.499 1.48802C16.511 0.917016 14.654 1.79202 12.699 3.69602C13.4377 4.4981 14.1229 5.34793 14.75 6.24002V6.24002ZM7.206 21.677C6.7838 21.6831 6.36756 21.5768 6 21.369C4.488 20.498 4.188 18 5.177 14.515L5.309 14.047L5.781 14.166C6.936 14.457 8.21 14.662 9.566 14.775L9.801 14.795L9.935 14.988C10.6606 16.0414 11.4706 17.034 12.357 17.956L12.697 18.305L12.357 18.654C10.459 20.604 8.629 21.677 7.206 21.677V21.677ZM6.016 15.25C5.33 17.938 5.507 19.931 6.501 20.504C7.488 21.067 9.344 20.199 11.301 18.296C10.5622 17.4934 9.87674 16.6432 9.249 15.751C8.16154 15.6549 7.08156 15.4875 6.016 15.25V15.25ZM12 15.878C11.177 15.878 10.331 15.842 9.484 15.772L9.249 15.752L9.114 15.559C8.63491 14.8706 8.18452 14.1627 7.764 13.437C7.34472 12.7108 6.95572 11.9675 6.598 11.209L6.498 10.996L6.598 10.783C6.95567 10.0245 7.34467 9.28123 7.764 8.55502C8.178 7.83902 8.633 7.12502 9.114 6.43302L9.249 6.24002L9.484 6.22002C11.1587 6.07802 12.8423 6.07802 14.517 6.22002L14.751 6.24002L14.885 6.43302C15.8442 7.81008 16.6861 9.26518 17.402 10.783L17.503 10.996L17.402 11.209C16.6878 12.7277 15.8458 14.183 14.885 15.559L14.751 15.752L14.517 15.772C13.67 15.842 12.823 15.878 12 15.878V15.878ZM9.803 14.794C11.283 14.905 12.717 14.905 14.198 14.794C15.0248 13.5853 15.7589 12.3156 16.394 10.996C15.7601 9.6756 15.0256 8.40586 14.197 7.19802C12.7344 7.08701 11.2656 7.08701 9.803 7.19802C8.97408 8.40563 8.23957 9.6754 7.606 10.996C8.24176 12.3155 8.97618 13.5851 9.803 14.794V14.794Z" fill="#008000"/>
</svg>
